<?xml version="1.0" encoding="UTF-8" standalone="no"?>
<svg width="1024px" height="1024px" viewBox="0 0 1024 1024" version="1.1" xmlns="http://www.w3.org/2000/svg" xmlns:xlink="http://www.w3.org/1999/xlink" xmlns:sketch="http://www.bohemiancoding.com/sketch/ns">
    <!-- Generator: Sketch 3.0.4 (8054) - http://www.bohemiancoding.com/sketch -->
    <title>Icon Shape + bulb + base</title>
    <desc>Created with Sketch.</desc>
    <defs>
        <linearGradient x1="50%" y1="0%" x2="50%" y2="100%" id="linearGradient-1">
            <stop stop-color="#848181" offset="0%"></stop>
            <stop stop-color="#000000" offset="100%"></stop>
        </linearGradient>
    </defs>
    <g id="Page-1" stroke="none" stroke-width="1" fill="none" fill-rule="evenodd" sketch:type="MSPage">
        <g id="iTunesArtwork@2x" sketch:type="MSArtboardGroup">
            <g id="Icon-Shape-+-bulb-+-base" sketch:type="MSLayerGroup">
                <path d="M357.009067,0 L666.990933,0 C769.792,0 821.179733,0 876.5184,17.4933333 C936.9344,39.4837333 984.516267,87.0656 1006.50667,147.4816 C1024,202.811733 1024,254.216533 1024,357.009067 L1024,666.990933 C1024,769.792 1024,821.179733 1006.50667,876.5184 C984.516267,936.9344 936.9344,984.516267 876.5184,1006.49813 C821.179733,1024 769.792,1024 666.990933,1024 L357.009067,1024 C254.208,1024 202.811733,1024 147.4816,1006.49813 C87.0656,984.516267 39.4837333,936.9344 17.4933333,876.5184 C0,821.179733 0,769.792 0,666.990933 L0,357.009067 C0,254.216533 0,202.811733 17.4933333,147.4816 C39.4837333,87.0656 87.0656,39.4837333 147.4816,17.4933333 C202.811733,0 254.208,0 357.009067,0 L357.009067,0" id="Icon-Shape" fill="url(#linearGradient-1)" sketch:type="MSShapeGroup"></path>
                <g id="bulb" transform="translate(197.000000, 84.000000)" fill="#F8E81C" sketch:type="MSShapeGroup">
                    <path d="M121.973806,491.425895 C26.8836127,386.026611 32.3232679,226.227914 134.369525,127.629395 C236.415782,28.9773125 396.309844,28.9773125 498.304215,127.629395 C600.350472,226.227914 605.790127,386.026611 510.699934,491.425895 C500.761265,502.411229 501.651695,519.358738 512.634777,529.244367 C523.617859,539.129996 540.566151,538.241193 550.45126,527.309422 C664.998682,400.359602 658.459379,207.869367 535.544931,89.1330215 C412.682369,-29.7087754 220.096817,-29.7087754 97.128809,89.1330215 C-25.787313,207.871041 -32.3249416,400.361275 82.2224801,527.309422 C87.5048037,533.16782 94.7755305,536.148908 102.098143,536.148908 C108.480114,536.148908 114.912297,533.847395 120.038963,529.244367 C131.023719,519.358738 131.912475,502.411229 121.973806,491.425895 Z" id="Path"></path>
                </g>
                <g id="base" transform="translate(325.000000, 646.000000)" fill="#BBBBBB" sketch:type="MSShapeGroup">
                    <path d="M349.015915,53.96875 L27.6578249,53.96875 C12.8552679,53.96875 0.877984085,41.9908359 0.877984085,27.1875 C0.877984085,12.3841641 12.8552679,0.40625 27.6578249,0.40625 L349.015915,0.40625 C363.818472,0.40625 375.795756,12.3841641 375.795756,27.1875 C375.795756,41.9908359 363.818472,53.96875 349.015915,53.96875 L349.015915,53.96875 Z M375.795756,107.53125 C375.795756,92.7279141 363.818472,80.75 349.015915,80.75 L27.6578249,80.75 C12.8552679,80.75 0.877984085,92.7279141 0.877984085,107.53125 C0.877984085,122.334586 12.8552679,134.3125 27.6578249,134.3125 L349.015915,134.3125 C363.818472,134.3125 375.795756,122.334586 375.795756,107.53125 L375.795756,107.53125 Z M322.236074,187.875 C322.236074,173.071664 310.25879,161.09375 295.456233,161.09375 L81.2175066,161.09375 C66.4149496,161.09375 54.4376658,173.071664 54.4376658,187.875 C54.4376658,202.678336 66.4149496,214.65625 81.2175066,214.65625 L295.456233,214.65625 C310.25879,214.65625 322.236074,202.678336 322.236074,187.875 L322.236074,187.875 Z M268.676393,268.21875 C268.676393,253.415414 256.699109,241.4375 241.896552,241.4375 L134.777188,241.4375 C119.974631,241.4375 107.997347,253.415414 107.997347,268.21875 C107.997347,283.022086 119.974631,295 134.777188,295 L241.896552,295 C256.699109,295 268.676393,283.022086 268.676393,268.21875 L268.676393,268.21875 Z" id="Shape"></path>
                </g>
            </g>
        </g>
    </g>
</svg>